<svg width="542" height="125" viewBox="0 0 542 125" fill="none" xmlns="http://www.w3.org/2000/svg">
<g filter="url(#filter0_d_2_3)">
<rect x="22" y="18" width="498" height="81" rx="13" fill="url(#paint0_linear_2_3)" shape-rendering="crispEdges"/>
<rect x="17.5" y="13.5" width="507" height="90" rx="17.5" stroke="black" stroke-opacity="0.1" stroke-width="9" shape-rendering="crispEdges"/>
</g>
<g clip-path="url(#clip0_2_3)">
<path d="M64 72C54 75 54 67 50 66M78 78V70.26C78.075 69.3063 77.9462 68.3476 77.622 67.4476C77.2979 66.5476 76.7859 65.7268 76.12 65.04C82.4 64.34 89 61.96 89 51.04C88.9995 48.2477 87.9254 45.5624 86 43.54C86.9117 41.097 86.8472 38.3967 85.82 36C85.82 36 83.46 35.3 78 38.96C73.416 37.7176 68.584 37.7176 64 38.96C58.54 35.3 56.18 36 56.18 36C55.1528 38.3967 55.0883 41.097 56 43.54C54.0603 45.5774 52.985 48.2869 53 51.1C53 61.94 59.6 64.32 65.88 65.1C65.222 65.7799 64.7145 66.5908 64.3906 67.4798C64.0667 68.3689 63.9336 69.3161 64 70.26V78" stroke="white" stroke-width="4" stroke-linecap="round" stroke-linejoin="round"/>
</g>
<path d="M134.312 68V47.6364H148.631V52.0909H139.841V55.5909H147.756V60.0455H139.841V68H134.312ZM162.715 47.6364H168.244V60.6818C168.244 62.233 167.872 63.5753 167.13 64.7088C166.394 65.8357 165.367 66.7074 164.048 67.3239C162.728 67.9337 161.197 68.2386 159.454 68.2386C157.697 68.2386 156.159 67.9337 154.84 67.3239C153.521 66.7074 152.494 65.8357 151.758 64.7088C151.029 63.5753 150.664 62.233 150.664 60.6818V47.6364H156.192V60.2045C156.192 60.8343 156.332 61.3977 156.61 61.8949C156.888 62.3854 157.273 62.7699 157.763 63.0483C158.261 63.3267 158.824 63.4659 159.454 63.4659C160.09 63.4659 160.654 63.3267 161.144 63.0483C161.635 62.7699 162.019 62.3854 162.298 61.8949C162.576 61.3977 162.715 60.8343 162.715 60.2045V47.6364ZM170.871 68V47.6364H176.4V63.5455H184.632V68H170.871ZM186.867 68V47.6364H192.396V63.5455H200.629V68H186.867ZM213.841 54C213.788 53.3371 213.539 52.8201 213.095 52.4489C212.657 52.0777 211.991 51.892 211.096 51.892C210.526 51.892 210.059 51.9616 209.694 52.1009C209.336 52.2334 209.071 52.4157 208.899 52.6477C208.726 52.8797 208.637 53.1449 208.63 53.4432C208.617 53.6884 208.66 53.9105 208.76 54.1094C208.866 54.3016 209.031 54.4773 209.257 54.6364C209.482 54.7888 209.77 54.928 210.122 55.054C210.473 55.1799 210.891 55.2926 211.375 55.392L213.045 55.75C214.172 55.9886 215.136 56.3035 215.939 56.6946C216.741 57.0857 217.397 57.5464 217.907 58.0767C218.418 58.6004 218.792 59.1903 219.031 59.8466C219.276 60.5028 219.402 61.2187 219.409 61.9943C219.402 63.3333 219.067 64.4669 218.404 65.3949C217.742 66.3229 216.794 67.0289 215.561 67.5128C214.334 67.9967 212.859 68.2386 211.136 68.2386C209.366 68.2386 207.822 67.9768 206.502 67.4531C205.19 66.9295 204.169 66.1241 203.44 65.0369C202.717 63.9432 202.353 62.5445 202.346 60.8409H207.596C207.629 61.464 207.785 61.9877 208.064 62.4119C208.342 62.8362 208.733 63.1577 209.237 63.3764C209.747 63.5952 210.354 63.7045 211.056 63.7045C211.646 63.7045 212.14 63.6316 212.538 63.4858C212.936 63.34 213.237 63.1378 213.443 62.8793C213.648 62.6207 213.754 62.3258 213.761 61.9943C213.754 61.6828 213.652 61.411 213.453 61.179C213.261 60.9403 212.942 60.7282 212.498 60.5426C212.054 60.3504 211.454 60.1714 210.699 60.0057L208.67 59.5682C206.867 59.1771 205.445 58.5241 204.404 57.6094C203.37 56.688 202.857 55.4318 202.863 53.8409C202.857 52.5483 203.201 51.4181 203.897 50.4503C204.6 49.4759 205.571 48.7169 206.811 48.1733C208.057 47.6297 209.485 47.358 211.096 47.358C212.74 47.358 214.162 47.633 215.362 48.1832C216.562 48.7334 217.486 49.509 218.136 50.5099C218.792 51.5043 219.124 52.6676 219.13 54H213.841ZM220.955 52.0909V47.6364H238.654V52.0909H232.529V68H227.08V52.0909H220.955ZM243.454 68H237.488L244.21 47.6364H251.766L258.488 68H252.522L248.067 53.2443H247.908L243.454 68ZM242.34 59.9659H253.556V64.1023H242.34V59.9659ZM278.504 55.2727H272.896C272.856 54.8087 272.75 54.3878 272.577 54.0099C272.412 53.6321 272.18 53.3073 271.881 53.0355C271.59 52.7571 271.235 52.545 270.817 52.3991C270.4 52.2467 269.926 52.1705 269.396 52.1705C268.468 52.1705 267.682 52.3958 267.039 52.8466C266.403 53.2973 265.919 53.9437 265.587 54.7855C265.263 55.6274 265.1 56.6383 265.1 57.8182C265.1 59.0644 265.266 60.1084 265.597 60.9503C265.935 61.7855 266.423 62.4152 267.059 62.8395C267.695 63.2571 268.461 63.4659 269.356 63.4659C269.866 63.4659 270.324 63.4029 270.728 63.277C271.132 63.1444 271.484 62.9555 271.782 62.7102C272.08 62.465 272.322 62.17 272.508 61.8253C272.7 61.474 272.829 61.0795 272.896 60.642L278.504 60.6818C278.437 61.5436 278.195 62.4219 277.778 63.3168C277.36 64.205 276.767 65.027 275.998 65.7827C275.236 66.5317 274.291 67.1349 273.164 67.5923C272.037 68.0497 270.728 68.2784 269.237 68.2784C267.367 68.2784 265.69 67.8774 264.205 67.0753C262.727 66.2732 261.557 65.0933 260.695 63.5355C259.84 61.9777 259.413 60.072 259.413 57.8182C259.413 55.5511 259.85 53.642 260.725 52.0909C261.6 50.5331 262.78 49.3565 264.265 48.5611C265.75 47.759 267.407 47.358 269.237 47.358C270.522 47.358 271.706 47.5336 272.786 47.8849C273.867 48.2363 274.815 48.75 275.63 49.4261C276.445 50.0956 277.102 50.9209 277.599 51.902C278.096 52.883 278.397 54.0066 278.504 55.2727ZM281.012 68V47.6364H286.54V55.8693H286.819L292.944 47.6364H299.387L292.506 56.7045L299.546 68H292.944L288.37 60.3636L286.54 62.75V68H281.012ZM314.441 68H306.605V47.6364H314.361C316.456 47.6364 318.266 48.044 319.79 48.8594C321.321 49.6681 322.501 50.8348 323.33 52.3594C324.165 53.8774 324.583 55.697 324.583 57.8182C324.583 59.9394 324.168 61.7623 323.34 63.2869C322.511 64.8049 321.338 65.9716 319.82 66.7869C318.302 67.5956 316.509 68 314.441 68ZM312.134 63.3068H314.242C315.249 63.3068 316.108 63.1444 316.817 62.8196C317.533 62.4948 318.077 61.9347 318.448 61.1392C318.826 60.3437 319.015 59.2367 319.015 57.8182C319.015 56.3996 318.822 55.2926 318.438 54.4972C318.06 53.7017 317.503 53.1416 316.767 52.8168C316.038 52.4919 315.143 52.3295 314.083 52.3295H312.134V63.3068ZM327.141 68V47.6364H341.817V52.0909H332.669V55.5909H341.061V60.0455H332.669V63.5455H341.777V68H327.141ZM350.127 47.6364L354.303 61.9943H354.462L358.638 47.6364H364.882L358.161 68H350.604L343.882 47.6364H350.127ZM366.844 68V47.6364H381.52V52.0909H372.372V55.5909H380.764V60.0455H372.372V63.5455H381.48V68H366.844ZM384.262 68V47.6364H389.79V63.5455H398.023V68H384.262ZM419.192 57.8182C419.192 60.0852 418.751 61.9976 417.87 63.5554C416.988 65.1065 415.798 66.2831 414.3 67.0852C412.802 67.8807 411.132 68.2784 409.289 68.2784C407.433 68.2784 405.756 67.8774 404.257 67.0753C402.766 66.2666 401.579 65.0866 400.698 63.5355C399.823 61.9777 399.385 60.072 399.385 57.8182C399.385 55.5511 399.823 53.642 400.698 52.0909C401.579 50.5331 402.766 49.3565 404.257 48.5611C405.756 47.759 407.433 47.358 409.289 47.358C411.132 47.358 412.802 47.759 414.3 48.5611C415.798 49.3565 416.988 50.5331 417.87 52.0909C418.751 53.642 419.192 55.5511 419.192 57.8182ZM413.505 57.8182C413.505 56.5985 413.342 55.571 413.017 54.7358C412.699 53.8939 412.225 53.2576 411.596 52.8267C410.972 52.3892 410.203 52.1705 409.289 52.1705C408.374 52.1705 407.602 52.3892 406.972 52.8267C406.349 53.2576 405.875 53.8939 405.55 54.7358C405.232 55.571 405.073 56.5985 405.073 57.8182C405.073 59.0379 405.232 60.0687 405.55 60.9105C405.875 61.7457 406.349 62.3821 406.972 62.8196C407.602 63.2505 408.374 63.4659 409.289 63.4659C410.203 63.4659 410.972 63.2505 411.596 62.8196C412.225 62.3821 412.699 61.7457 413.017 60.9105C413.342 60.0687 413.505 59.0379 413.505 57.8182ZM421.75 68V47.6364H430.54C432.051 47.6364 433.374 47.9347 434.507 48.5312C435.641 49.1278 436.522 49.9664 437.152 51.0469C437.782 52.1274 438.097 53.3902 438.097 54.8352C438.097 56.2936 437.772 57.5563 437.122 58.6236C436.479 59.6908 435.574 60.5128 434.408 61.0895C433.248 61.6662 431.892 61.9545 430.341 61.9545H425.091V57.6591H429.227C429.877 57.6591 430.43 57.5464 430.888 57.321C431.352 57.089 431.706 56.7609 431.952 56.3366C432.204 55.9124 432.33 55.4119 432.33 54.8352C432.33 54.2519 432.204 53.7547 431.952 53.3438C431.706 52.9261 431.352 52.608 430.888 52.3892C430.43 52.1638 429.877 52.0511 429.227 52.0511H427.278V68H421.75ZM440.125 68V47.6364H454.801V52.0909H445.653V55.5909H454.045V60.0455H445.653V63.5455H454.761V68H440.125ZM457.543 68V47.6364H466.333C467.844 47.6364 469.167 47.9115 470.3 48.4616C471.434 49.0118 472.315 49.804 472.945 50.8381C473.575 51.8722 473.89 53.1117 473.89 54.5568C473.89 56.0152 473.565 57.2448 472.915 58.2457C472.272 59.2467 471.367 60.0024 470.201 60.5128C469.041 61.0232 467.685 61.2784 466.134 61.2784H460.884V56.983H465.02C465.67 56.983 466.223 56.9034 466.681 56.7443C467.145 56.5786 467.499 56.3168 467.745 55.9588C467.997 55.6009 468.123 55.1335 468.123 54.5568C468.123 53.9735 467.997 53.4995 467.745 53.1349C467.499 52.7637 467.145 52.492 466.681 52.3196C466.223 52.1406 465.67 52.0511 465.02 52.0511H463.071V68H457.543ZM469.475 58.6534L474.566 68H468.56L463.588 58.6534H469.475Z" fill="white"/>
<defs>
<filter id="filter0_d_2_3" x="0.4" y="0.4" width="541.2" height="124.2" filterUnits="userSpaceOnUse" color-interpolation-filters="sRGB">
<feFlood flood-opacity="0" result="BackgroundImageFix"/>
<feColorMatrix in="SourceAlpha" type="matrix" values="0 0 0 0 0 0 0 0 0 0 0 0 0 0 0 0 0 0 127 0" result="hardAlpha"/>
<feMorphology radius="2" operator="erode" in="SourceAlpha" result="effect1_dropShadow_2_3"/>
<feOffset dy="4"/>
<feGaussianBlur stdDeviation="7.3"/>
<feComposite in2="hardAlpha" operator="out"/>
<feColorMatrix type="matrix" values="0 0 0 0 0.117647 0 0 0 0 0.117647 0 0 0 0 0.117647 0 0 0 1 0"/>
<feBlend mode="normal" in2="BackgroundImageFix" result="effect1_dropShadow_2_3"/>
<feBlend mode="normal" in="SourceGraphic" in2="effect1_dropShadow_2_3" result="shape"/>
</filter>
<linearGradient id="paint0_linear_2_3" x1="22" y1="58.5" x2="488.871" y2="154.243" gradientUnits="userSpaceOnUse">
<stop offset="0.0001" stop-color="#414379"/>
<stop offset="1" stop-color="#000899"/>
</linearGradient>
<clipPath id="clip0_2_3">
<rect width="48" height="48" fill="white" transform="translate(46 34)"/>
</clipPath>
</defs>
</svg>
